<svg xmlns="http://www.w3.org/2000/svg" viewBox="0 0 64 64" role="img" aria-label="A&amp;E Cleaning Solutions">
  <defs>
    <linearGradient id="bg" x1="0" y1="0" x2="1" y2="1">
      <stop offset="0" stop-color="#123253"/>
      <stop offset="1" stop-color="#0587b0"/>
    </linearGradient>
  </defs>
  <rect width="64" height="64" rx="14" fill="url(#bg)"/>
  <path d="M32 12c8.6 10.1 15.5 18.7 15.5 26.9A15.5 15.5 0 0 1 32 54.4a15.5 15.5 0 0 1-15.5-15.5C16.5 30.7 23.4 22.1 32 12z" fill="#ffffff" opacity=".95"/>
  <path d="M32 47.2a8.9 8.9 0 0 1-8.9-8.9 1.7 1.7 0 0 1 3.4 0 5.5 5.5 0 0 0 5.5 5.5 1.7 1.7 0 0 1 0 3.4z" fill="#0587b0"/>
</svg>
